<svg xmlns="http://www.w3.org/2000/svg" xmlns:xlink="http://www.w3.org/1999/xlink" width="160" height="145"><style><![CDATA[.B{mask:url(#F)}.C{fill:#f0bb8f}.D{fill:#e8ab79}.E{fill:#fff}.F{fill:#f8ebe0}.G{fill:#614f45}.H{fill:#dbdfe8}.I{fill:#5d5f99}]]></style><defs><path id="A" d="M0 145.72h159.396V.99H0z"/><path d="M.303.634C1.006.38 2.35.48 3 .98s1.228 3.227.746 3.72-1.3 1.158-1.536.933-.444-.75-.5-1.006-.384-.29-.48-.687-.12-.675-.428-.89S.46 2.392.4 2.028s-.172-.31-.297-.75" id="B"/><linearGradient x1="34.6413002%" y1="54.5521393%" x2="71.9304417%" y2="35.2970366%" id="C"><stop stop-color="#dba579" offset="0%"/><stop stop-color="#efba8e" offset="100%"/></linearGradient><path d="M5.24.796c.2.156.242.295-.022.67s-.352.287-.527.614-.348.74-.71.84-.475.354-.695.7-.543.273-.677.495-.5.65-.8.788S.954 4.144.66 3.52 1.8.505 2.576.246" id="D"/><linearGradient x1="66.0700915%" y1="62.5716603%" x2="21.8127758%" y2="25.4291413%" id="E"><stop stop-color="#dba579" offset="0%"/><stop stop-color="#efba8e" offset="100%"/></linearGradient></defs><g transform="translate(0 -1)" fill="none" fill-rule="evenodd"><g class="H"><path d="M98.388 40.43c3.093-9.258 8.508-26.283 4.344-32.838C98.5.923 67.1-1.778 63.59 9.03s1.804 24.958 4.643 30.015l30.155 1.384z"/><path d="M71.395 20.43c-.766 1.733-2.237 19.295-2.237 19.295l9.163.923s3.095-7.633 3.683-7.7 1.77-.202 2.31.705 2.968 6.987 2.968 6.987l8.265.806S97.353 30.8 97.31 25.807s-3.928-9.284-9.843-10.17-13.207-1.707-16.074 4.792"/></g><path d="M85.95 31.274c-.705-.91-3.588-.453-5.08 0-1.445.444-4.8 7.706-5.237 9.102l2.687.27s3.095-7.63 3.685-7.698 1.768-.204 2.31.703 2.968 6.987 2.968 6.987l2.946.29c-1.127-2.73-3.726-8.944-4.277-9.652" fill="#c3c6d5"/><path d="M66.716 108.276c-2.358 9.47-6.43 26.867-1.77 33.078 4.74 6.318 36.264 6.562 38.913-4.487s-3.746-24.744-6.97-29.56l-30.173.97zm54.1-20.946c9.884 2.25 28.033 6.106 34.383 1.135 6.46-5.055 6.04-37.796-5.487-40.3s-25.613 4.415-30.55 7.865l1.653 31.3z" class="H"/><path d="M73.567 127.898c-3.722-2.053-.986-18.267-.986-18.267l15.02-1.562s7.643 11.41 4.988 16.398-19.022 3.43-19.022 3.43" fill="#707078"/><path fill="#7a553c" d="M138.766 80.757l-15.51-1.27-.717-22.3 16.69.23z"/><path d="M92.953 123.505c1.402-5.352-5.352-15.436-5.352-15.436l-15.02 1.562-.194 1.27 14.98-.218s4.013 9.35 3.594 11.56c-.244 1.287.956 1.4 1.994 1.26" fill="#47474F"/><path d="M37.392 60.883c-9.478-2.328-26.888-6.34-33.084-1.657-6.3 4.76-6.435 36.285 4.62 38.897s24.728-3.83 29.538-7.07l-1.075-30.17z" class="H"/><path d="M22.087 88.387c4.338 2.643 10.088 1.232 14.658-1.665l-.598-21.31s-10.252-4.198-15.644-1.113 1.584 24.09 1.584 24.09" class="I"/><path d="M32.92 71.354c0-26.237 21.27-47.508 47.5-47.508s47.508 21.27 47.508 47.508-21.27 47.5-47.508 47.5-47.5-21.27-47.5-47.5" fill="#5f83c6"/><path d="M61.7 84.804s-2.354-1.717-4.924-.768-1.942 2.624-1.942 2.624l6.793.384.564-1.275-.49-.964z" class="D"/><path d="M53.06 85.637l11.433-2.513c.13-.026.257.055.287.184s-.05.25-.17.283l-11.3 3.097c-.287.077-.586-.09-.665-.378a.54.54 0 0 1 .38-.667l.026-.006" fill="#90a2d0"/><path d="M51.32 85.796c.762-.18 2.507-1.164 3.36-1.628s1.04-.968 2.34-1.2 2.31-.234 2.71-.143.905.123 1.434.24.88.576-.137.9c-.707.224-1.45.145-1.944.103s-1.663.55-2.26.94-.933.713-.287.766l2.936.156c.705.113 1.883.457 1.883.457s.158-.8.333-.907c0 0-.414-.584-.523-1.03s.406-1.063.798-.465.984 1.533.996 1.8-.598 1.895-.642 2.037-1.255.55-1.663.845-1.4.88-1.717.91-1.71-.23-2.588-.28-2.584.077-3.51.46l-1.52-3.964z" class="C"/><path d="M24.906 86.958c2.305.218 5.095-.85 5.493-3.966s-1.38-5.275-1.52-7.73.422-7.146-2.057-9.62c-1.465-1.46-2.88-1.257-5.194-1.13l3.277 22.443z" class="G"/><path d="M58.9 84.355l-5.865 1.287a.54.54 0 0 0-.378.667c.077.29.376.457.665.38L59.473 85l-.574-.643" fill="#90a2d0"/><path d="M50.366 90.972l2.56-1.034s-.384-4.235-1.66-4.483l-4.118.626.002.004c-2.875.127-7.857.6-10.518 1.893l-9.96-1.024-1.384-8.79-17.378 1.6c.067 1.927 1.525 7.126 3.44 10.023s6.288 5.883 13.492 5.68 12.137-.69 12.92-.778 7.678-2.127 10.472-2.992a40.17 40.17 0 0 0 1.97-.665l.002.004.16-.063z" class="G"/><path d="M49.68 73.865c-.317-.527-1.477-1.362-1.956-1.784s-1.467-2.202-1.467-2.202l.788 1.085c.244.295 1.388 1.33 1.6 1.4s.71-.1.422-.828c-.147-.366-.735-.83-1.186-1.398l-1.283-1.67c-.764-1.05-1.51-1.2-3.178-2.427l-.168-.133-3.04 2.76.396.38c1.103 1.138 1.275 3.04 1.455 3.503s1.89 1.822 2.307 2.307 1.27.226 1.27.226c.956.535 1.616.198 1.616.198.137.097.774.49 1.182.71s.9.527 1.083.162-.032-1.103-.032-1.103c.198-.172.52-.65.202-1.176" class="C"/><path d="M40.957 63.484h0l-2.853-3.326c-3.376-3.72-5.92-4.306-8.336-4.893S15.67 59.888 12.15 62.603s-5.033 8.46-4.243 17.16l17.378-1.6-1.9-13.292 7.12-3.277c1.036 1.142 4.128 2.895 5.184 3.6l1.946 1.392c.22.168 2.09 2.065 2.408 2.404 0 0 2.073-.645 3.546-3.186 0 0-2.08-1.647-2.63-2.32" class="G"/><path d="M26.84 74.954s-4.544-9.276-13.147-5.403l1.964 14.812s5.08.816 8.298-1.154 2.885-8.255 2.885-8.255" class="D"/><path d="M25.285 78.164c-.232 3.922-3.417 6.928-7.118 6.7s-6.512-3.574-6.283-7.498 3.417-6.928 7.118-6.7 6.512 3.576 6.283 7.498" class="F"/><path d="M23.968 76.58c-.046-.453-.687-.56-.976-.853s-.65-.166-.65-.166-.073-1.04-.42-1.73-1.232-1.507-2.23-2.123-1.63-.843-2.964-1.032-1.29-.325-1.542-.693-1.144-.356-1.493-.434-2.265-.293-2.418.964 2.517 13.973 2.68 14.19.653.483 1.28.182 2.29-.647 2.125-1.253c0 0 1.16-.143 2.564-1.026s2.913-2.895 2.794-4.41c0 0 .414.014.608-.376s.71-.584.643-1.24" class="C"/><path d="M20.08 71.325c1.52.13 1.944.865 2.235 2.27.242 1.16.253 1.727.25 1.915.103.198.426.86.505 1.58.065.606-.032.954-.11 1.125.184.477.198 1.093.2 1.69l.026.715c.042.588-.034 1.392-.382 1.73-.123.12-.273.168-.432.156l.048-.438c.014.004.04 0 .08-.036.156-.15.295-.685.247-1.382l-.028-.735c-.014-.598-.026-1.212-.214-1.622l-.057-.125.085-.105s.16-.253.087-.927c-.083-.748-.48-1.46-.483-1.47l-.036-.06.01-.07c0-.002.044-.493-.238-1.853-.295-1.422-.675-1.818-1.843-1.92l.038-.438z" fill="#0a0d16"/><path d="M18.51 72.72c1.158.4 2.3 1.487 2.356 4.002s2.388 4.855 3.695 4.16c0 0-1.317.994-2.75-.422 0 0 .517 2.447 2.736 1.98 0 0-.4.527-1.152.55s-.778.657-1.826.834-1.82-.392-1.82-.392.816 1.164 2.12.87c0 0-.45.63-1.802.73s-2.734.67-4.43 1.03-4.322.69-6.154-.297-3.546-2.186-4.033-5.132.574-5.114.574-5.114-.86-.86-.135-2.243 4.396-3.68 8.672-4.1 5.85 1.7 6.603 3.18c0 0-1.4-1.418-2.657.366" fill="#2f3034"/><path d="M7.62 84.55c-2.465-2.123-1.33-8.284.97-8.4s2.08 1.33 2.08 1.33 1.73-3.334 6.193-2.812 3.275 4.045 4.946 5.784c1.434 1.414 2.75.42 2.75.42-1.307.695-3.637-1.647-3.695-4.16S19.67 73.13 18.5 72.72c-8.144-.424-12.484 2.798-12.484 2.798s-1.06 2.168-.574 5.114c.313 1.897 1.137 3.06 2.168 3.918M5.892 73.276c-.315.596-.325 1.1-.244 1.463-.026-1.762 3.126-3.8 4.82-3.475s1.798-.665 4.716-1.28 5.388 1.396 5.984 2.37c-.752-1.48-2.326-3.604-6.605-3.18s-7.946 2.72-8.67 4.1" fill="#0a0d16"/><path d="M48.966 74.7l-.853-.56-.966-.65c-.568-.544-1.043-1.196-1.4-1.66l-.594-.798.576.8c.36.48.812 1.13 1.384 1.703.315.25.65.46.954.68l1.467 1.016-.046-.204-.513-.335m-1.945.348c-.35-.33-.883-.687-1.305-1.156-.84-.948-1.505-2.04-1.505-2.04a16.31 16.31 0 0 0 1.449 2.089c.416.493.94.867 1.273 1.2a2.31 2.31 0 0 1 .17.174c.083-.024.13-.048.13-.048.008.006.032.02.042.028a3.1 3.1 0 0 0-.255-.248m-2.736-1.3c-.45-.45-.966-.857-1.146-1.3-.192-.438-.248-.756-.248-.756a3.61 3.61 0 0 0 .228.766c.168.465.68.893 1.113 1.354l1.255 1.232.055.06.077-.02c.057.032.1.034.154.06l-.2-.2-1.3-1.196" class="D"/><path d="M51.265 85.456l-4.12.626.002.004c-2.873.127-7.855.6-10.516 1.893l-9.96-1.024-.014-.083c1.786-.348 3.445-1.533 3.742-3.88.2-1.635-.182-3.008-.622-4.3.404 1.338.422 5.5-1.784 6.534s-4.655 2.334-4.655 2.334 13.74 2.342 14.056 2.132c.305-.208 8.627-2.6 14.72-3.32-.226-.487-.503-.85-.85-.92m-9.976-17.12c-1.584-1.04-3.168-2.806-5.075-4.267L30.2 59.62s-7.24 4.4-9.787 5.312c0 0 7.278.053 8.425 7.647-.038-2.382-.275-5.198-2.016-6.934-.808-.806-1.604-1.097-2.542-1.182l6.225-2.867c1.036 1.142 4.128 2.895 5.184 3.6a38.19 38.19 0 0 1 1.946 1.392c.22.168 2.1 2.065 2.408 2.404 0 0 .53-.168 1.245-.66" fill="#4c3e35"/><path d="M91.113 101.74l-13.814 8.79-11.478-17.71 13.812-8.79z" class="F"/><path d="M91.265 101.487l-13.814 8.79-11.478-17.71 13.812-8.79z" class="E"/><path d="M106.822 57.05l2.922 16.11L89.008 77.1l-2.922-16.11z" class="F"/><path d="M106.646 56.81l2.922 16.11-20.735 3.94-2.922-16.11z" class="E"/><path d="M69.56 94.4l-.208-.33 10.375-6.524.206.333zm1 1.528l-.208-.33 10.373-6.524.208.333zm1 1.516l-.206-.33 10.373-6.522.208.333zm2.375 3.774l-.206-.333 10.373-6.522.208.33zm1.1 1.74l-.208-.33L85.2 96.106l.208.33zm1.108 1.742l-.208-.33L86.3 97.846l.206.333zm1.107 1.743l-.206-.33 10.373-6.524.206.333z" fill="#b4b4b4"/><mask id="F" class="E"><use xlink:href="#A"/></mask><path d="M75.903 95.188h3.095v-2.132h-3.095z" class="B D"/><path d="M71.37 109.63c-.073-.248-.515-.74-.944-1.123s-1.88-1.24-2.186-1.344-1.002-.438-1.113-.277 1.88 2.64 1.88 2.64l2.362.103z" fill="#ffa401" class="B"/><path d="M67.124 108.394c.313-.608.784-2.37 1.263-3.194s.606-1.337 1.418-3.283.8-2.384 1.043-2.455.525.364.463.746-.917 2.6-.764 2.677 1.525-2.378 2.06-3.148.636-1.07.917-.98.4.432.053 1.07-1.794 2.837-1.85 2.946 1.497-1.727 2.063-2.45.935-1.386 1.075-1.34.564.236.275.8-1.628 2.623-1.895 2.978-.453.455-.4.562 1.083-1.034 1.46-1.443 1.31-1.632 1.473-1.576.638.358-.105 1.267l-2.208 2.734c-.265.248-.552 1.5-.513 1.74s1.047.2 2.1-.073 1.558.172 1.697.384-.867.457-1.766.762l-2.414.9c-.845.305-1.637 1.08-2.196 1.503s-1.067.933-1.067.933l-2.18-2.057z" class="B C"/><path d="M81.79 124.334c-6.385.653-6.88 3.683-7.635 3.564-1.12-.182-6.158-6.708-6.158-6.708s1.142-2.837 1.534-4.928 1.84-6.63 1.84-6.63c-1.91-.297-4.24-2.744-4.24-2.744-1.208 2.835-3.938 9.918-4.825 12.66-.8 2.473-.364 2.713 1.968 8.02 1.964 4.46 2.31 4.986 4.972 9.243 2.538 4.055 12.474 3.362 16.533 3.687l3.04-13.834c-.598-.13-6.417-2.392-7.027-2.328" fill="#ef384c" class="B"/><path d="M75.083 94.66c-.34.06-.77.01-.675-.29S75.135 93 75.58 92.37s.796-.89 1.873-1.168l-.386 2.564s-.685-.024-1.198.156c-.564.2-.786.74-.786.74" class="B C"/><g class="G B"><path d="M75.22 96.04l.216.596.33-.56.28-2.03-.568-.517z"/><path d="M76.01 94.244l.574-3.324c.113-.634.198-1.243-.115-1.293s-.606-.267-.683.657l-.35 3.663s.248.31.574.297"/></g><path d="M84.37 98.894c-.752-.475-1.382-1.218-2.64-1.362s-2.78-.184-3.72-.78l-2.38-1.56c-.337-.293-1.356-1.273-1.024-1.503s1.075-.004 1.63.52 1.816.836 2.222.68-1.077-1.133-1.4-1.125l-.54.018.764-2.473c.063-.178 1.26-.416 1.845-.475s1.184-.226 1.853.418 2.336 2.728 2.76 3.08 2.802 1.905 2.802 1.905l-2.184 2.657z" class="B C"/><path d="M83.123 99.114s.85-3.176 2.48-3.82l5.417 3.085c1.962 1.29 9.896 6.665 10.037 7.556s.612 6.997-.49 12.77-2.905 16.276-6.762 19.176c-3.552 2.67-9.088 2.372-9.088 2.372l.9-12.595s-10.245-.723-9.694-1.3c3.198-3.35 10.514-3.675 13.713-3.647.93.008 1.738-.596 2.004-1.485 1.008-3.378 3.32-11.2 3.29-11.65-.042-.576-4.706-5-5.833-6.17s-5.974-4.29-5.974-4.29" fill="#ef384c" class="B"/><path d="M97.014 108.24c-.994-1.855-10.536-9.017-13.167-10.97-.475.942-.725 1.845-.725 1.845s4.85 3.122 5.974 4.293 5.793 5.594 5.833 6.17c.034.447-2.28 8.272-3.29 11.65a2.07 2.07 0 0 1-2.004 1.485c-3.2-.028-10.514.297-13.71 3.645v.002c-1.063.843-1.388 1.602-1.772 1.54-1.12-.182-6.156-6.708-6.156-6.708s1.142-2.84 1.533-4.928 1.84-6.63 1.84-6.63c-.378-.057-.77-.216-1.16-.406-1.253 4.065-3.996 11.757-3.996 11.757l7.07 9.698c.644.71 4.206-3.895 7.265-4.168s10.77.34 11.405-.853 6.215-15.266 5.06-17.42" fill="#d9293c" class="B"/><path d="M81.49 121.706c-.453.09-.5.75-.768 1.07-.27.327-.105.677-.105.677s-1.045.178-1.71.598-1.408 1.394-1.93 2.463-.695 1.736-.756 3.107-.2 1.337-.548 1.628-.25 1.196-.295 1.558-.077 2.323 1.212 2.354 13.913-3.92 14.117-4.107.424-.71.06-1.315-.88-2.255-1.48-2.03c0 0-.255-1.162-1.29-2.5s-3.218-2.665-4.742-2.396c0 0-.028-.42-.442-.58s-.66-.663-1.32-.53" class="B C"/><g fill="#ef7a2b" class="B"><path d="M81.723 139.855c-2.23.022-4.16-2.06-5.136-4.693s-.7-5.43-.543-6.22 1.46-1.247 2.067-1.832 2.095-2.5 4.697-2.627 4.342 1.48 5.144 1.697 1.137.598 1.687 1.907 1.297 3.295 1.196 5.122-.584 3.728-1.748 4.5c0 0 1.44.523 1.178 2.313s-2.144 2.865-4.9 3.08c-2.25.174-4.404-1.206-3.64-3.247"/><path d="M78.167 127.364s.08-.164.26-.457a6.77 6.77 0 0 1 .845-1.099c.754-.853 2.14-1.73 3.677-1.818.748-.06 1.525.042 2.192.25.673.212 1.257.51 1.776.71 1.04.442 1.8.287 1.8.287s-.184.038-.51.036c-.327.006-.794-.07-1.323-.26l-1.8-.644a5.71 5.71 0 0 0-2.132-.166c-1.475.148-2.736 1.024-3.42 1.855-.713.83-.984 1.51-.984 1.51l-.4-.204z"/><path d="M77.908 128.018s.135-.154.303-.416l.73-1.182c.317-.493.83-1.026 1.515-1.342s1.475-.422 2.247-.434c.384.02.776-.014 1.16.09l1.067.31 1.89.5c1.13.246 1.893.03 1.893.03s-.754.246-1.905.036c-.568-.087-1.224-.246-1.92-.436l-1.065-.27c-.352-.083-.74-.038-1.117-.044-.752.042-1.51.17-2.12.487s-1.05.802-1.333 1.28l-.685 1.208-.3.45-.36-.267z"/></g><path d="M83.58 139.113c1.677-1.915 5.504-1.402 5.504-1.402-2.445-1.473-4.7 1.154-8.03-.586s-3.667-8.233-2.14-10.755l-.048-.02-.758.762c-.606.584-1.91 1.045-2.067 1.832s-.434 3.586.544 6.22 2.907 4.714 5.136 4.693c-.762 2.04 1.392 3.42 3.64 3.247 1.913-.148 3.388-.72 4.21-1.647-2.98 1.342-7.665-.432-5.99-2.342" fill="#e37022" class="B"/><path d="M138.787 79.693l.093-4.76-5.223-17.594-1.72-.024c-2.794 4.695-4.865 14.57-1.55 22.754l5.253.432 3.148-.808z" fill="#694329" class="B"/><path d="M98.05 77.793c-.564.228-1.123.28-1.032.588.085.305 1.228 1.697 1.493 1.6s1.996-1.038 2.043-1.105-1.004-1.154-1.004-1.154l-1.5.06z" class="B D"/><path d="M98.46 78.01l3.718-1.154c.125-.186-.194-.974-.64-.798s-4.443 1.463-4.443 1.463l1.364.49z" fill="#293b51" class="B"/><path d="M96.07 77.833c.085-.2.503-.663.778-.75s.392.703.392.703l-.022.442-1.148-.394z" fill="#d6a175" class="B"/><path d="M106.5 83.412c.628-.907 1.053-1.875 1.483-2.88-1.9-.8-3.7-2.125-4.184-2.5-.5-.384-1.55-.677-2.546-.788l-3.396-.467c-.414-.186-1.428-.548-1.125.212.218.543.717 1 1.505 1.144s1.65.428 1.83.56-.267.368-.368.477-1.053.295-1.453.063-1.028-.998-1.028-.998l-1.253.55s-.087.7.137.962l1.234 1.477c.596.683 1.847 1.733 2.237 1.715s4.204-.495 4.5-.436c.115.024 1.146.46 2.384 1.002.02-.03.034-.057.05-.087m4.426-25.015c-2.26.786-2.53 1.117-3.26 1.74s-1.723 1.68-3.382 2.507-2.224 1.582-2.542 1.944-1.057 1.507-1.434 1.1.388-1.598.73-2.06 1.277-1.287 1.277-1.287L100.1 63.8c-.606.382-2.5 1.635-2.83 1.525s-.55-.55-.33-.826 1.408-1.053 2.257-1.758c0 0-.792-.287-.857-.65s.06-.657.345-1.1c0 0-.376-.602.065-1.154 0 0-.13-.78.232-1.232s1.85-.942 2.136-1.02 2.463-.307 3.037-.404 1.434-.384 1.73-.564.663-.55 1.293-.784 1.887-.907 1.887-.907l1.857 3.467z" class="C B"/><path d="M98.83 62.554c.05-.2.38-.562.98-.75.66-.206 2.06-.774 2.06-.774l-2.673 1.705s-.117 0-.366-.18m2.52-2.888L98.684 61s-.085-.145-.127-.35c.657-.293 2.794-.972 2.794-.972m-.165-1.048l-1.416.7-1.02.5s-.018-.14-.018-.323c.75-.335 2.453-.885 2.453-.885" class="D B"/><g fill="#c9c94f" class="B"><path d="M152.847 67.78l-22.5.944s-.123 6.68 2.897 10.003l-8.847 3.105s-3.6 1.1-4.02.98-10.912-2.51-13.042-3.31c-1.982.843-2.323 4.168-2.427 4.324l5.15 1.954c.758.323 9.753 3.253 10.296 3.388 1 .246 10.44-1.715 12.042-2.188s12.94-2.98 15.264-4.025 5.53-3.748 5.186-15.175"/><path d="M146.41 53.09c-2.406-.847-13.1-3.45-14.73-3.774-3.548-.71-6.706-1.422-8.868-.834-.54.147-12.145 5.29-15.2 6.362-.06.84.82 3.776 1.85 4.968.242-.147 1-.596 2.162-1.02l11.985-4.475c.4-.152 1.976.576 4.085 1.31 1.69.588 5.384 2.018 5.384 2.018-3.11 3.378-2.717 11.078-2.717 11.078l22.5-.942c-.614-11.413-4.033-13.842-6.437-14.7"/></g><path d="M98.236 78.125c-.5-.093-.873-.32-1.142-.606l-3.307 1.08c-.297.14-1.31.64-1.28.786.026.11 1.016.008 1.645-.12s4.083-1.14 4.083-1.14" fill="#293b51" class="B"/><path d="M135.522 63.103l-4.89 5.607 6.734 5.33z" class="B E"/><path d="M139.687 75c-.818-.22-4.332-1.133-5.003-4.7 0 0-.574.06-.9-.34s-1.443-.8-1.53-1.45 1.22-1.388 1.372-1.72.588-.414.588-.414.046-4.66 4.96-5.425l1.643 13.096-1.12.94zm.545-15.058c-.24-.42.596-.226 1.517-.647s2.3-.475 2.52.444-4.035.204-4.035.204m.902 15.882c-.25.17-.188.72.818.7s3.305.933 3.425-.5-4.243-.202-4.243-.202" class="C B"/><g fill="#8b6e5c" class="B"><path d="M139.605 73.29c.166 1.386-.68 2.06.6 2.51s6.12 1.085 9.282-1.647 3.42-7.403 2.47-9.884-2.198-3.362-3.764-3.932-4.85-1.012-7.215-.533c-2.012.408-2.71.832-2.746 1.457s-2.235 2.53-1.47 6.9c.604 3.45 2.762 4.38 2.85 5.138"/><path d="M140.137 73.56c-.012.004-.065.018-.232.12a2.7 2.7 0 0 0-.505.41c-.35.335-.495.83-.495.83s.024-.52.31-.972c.133-.224.303-.43.442-.572.123-.135.287-.244.277-.236l.204.42z"/></g><path d="M150.57 64.08c.71 2.92-.582 8.148-3.645 10.15s-7.322 1.194-7.352.075c-.11.73-.285 1.174.624 1.495 1.27.45 6.12 1.087 9.282-1.647s3.417-7.4 2.47-9.882-2.198-3.364-3.764-3.934a7.65 7.65 0 0 0-.952-.253c.744.224 2.624 1.057 3.338 3.996" fill="#80624f" class="B"/><path d="M140.112 73.608c-.006-.012-.158-.026-.475-.156-.32-.12-.715-.343-1.152-.673-.867-.65-1.794-1.863-2.11-3.27-.354-1.396-.2-2.843.065-3.86.1-.52.26-.93.356-1.224l.154-.457-.135.463c-.083.297-.226.713-.307 1.232-.212 1.024-.307 2.457.09 3.786a5.59 5.59 0 0 0 2.121 3.016c.412.29.802.485 1.06.568.253.1.455.12.446.125l-.115.453z" fill="#8b6e5c" class="B"/><path d="M120.537 85.046c2.354-.3 16.94-5.685 16.94-5.685s-5.136-1.832-6.845-10.65c0 0 1.144-8.876 5.44-11.838 0 0-9.773-4.172-11.522-4.568-1.485-.337-12.543 4.82-15.82 6.372.222.446.465.843.72 1.137.24-.145.998-.596 2.16-1.02l11.985-4.475c.4-.152 1.976.576 4.085 1.31 1.69.586 5.384 2.014 5.384 2.014-3.11 3.38-2.717 11.08-2.717 11.08v.002s-.12 6.68 2.897 10.005c0 0-7.102 2.69-8.845 3.103s-3.612 1.1-4.023.98c-.404-.117-10.9-2.51-13.04-3.31-.513.218-.91.604-1.228 1.055 2.073.812 12.318 4.758 14.428 4.49" fill="#b0b54f" class="B"/><path d="M96.912 25.783c1.14 4.413 3.303 9.58 3.303 9.58s-3.324 3.014-5.2 5.203-2.564 3.075-4.166 3.82-1.7 1.107-3.342 1.077-2.576-.362-3.247-.117-1.065.533-1.66.695-.962.9-1.34 1.095-.5.368-.4.67.642.382.642.382-.012.285.232.544a1.13 1.13 0 0 0 .588.311s-.275.752.634 1.24c0 0-.002 1.045 1.008 1.073 0 0-.137.073.26.58s1.578.05 2.08-.125.477-.022 1.368-.457S89.396 50.7 89.9 50.3s.832-1.077 1.44-1.333 8.41-5.017 10.912-6.66 4.267-2.802 4.714-3.653.608-.86.234-2.976-2.6-8.324-2.6-8.324l-7.7-1.572z" class="B C"/><path d="M81.712 47.598c.115-.107 1.04-.632 1.32-.812s1.257-.57 1.465-.58 1.202-.303 1.202-.303-.346.073-.778.075-.748.08-1.362.3-1.76.954-2.12 1.287-.57.25-.57.25c.113.303.64.384.64.384-.022-.2.1-.483.204-.592m.417 1.39c.115.044.2.057.2.057.44-.137.946-.594 1.073-.685s.053-.172.032-.218-1.105.903-1.305.845m2.102.668c-.053-.1-.94.517-1.428.525.05.034.095.073.158.105 0 0 .473-.057.836-.25s.5-.287.434-.378m.425 1.398c-.25.17-.687.303-.687.303s-.034.024-.014.1c.396-.044 1.154-.386 1.115-.5s-.166-.095-.414.075" class="D B"/><g class="B"><g transform="translate(84.15 45.731)"><mask id="G" class="E"><use xlink:href="#B"/></mask><path d="M.303.634c-.232.083-.325.2-.2.643s.24.384.297.75.093.812.402 1.024.335.49.428.89.424.432.48.687.26.78.5 1.006 1.055-.44 1.536-.933S3.65 1.48 3 .98 1.006.38.303.634" fill="url(#C)" mask="url(#G)"/></g><path d="M70.355 27.378c-2.515 3.804-2.2 5.597-2.2 5.597L71.4 39.59c1.065 2.68 1.424 3.742 2.697 4.968s1.245 1.598 2.8 2.105 2.554.495 3.11.946.834.85 1.342 1.198.618 1.162.913 1.47.352.51.148.758-.73.154-.73.154-.08.273-.396.44-.657.103-.657.103.014.798-1.002.964c0 0-.34 1-1.305.69 0 0 .107.113-.432.46s-1.51-.463-1.927-.794-.447-.176-1.146-.877-1.412-1.178-1.76-1.72-.434-1.29-.927-1.73-6.32-7.482-8.152-9.85-3.122-4.037-3.27-4.988-.295-1 .748-2.89 3.014-5.22 3.014-5.22l5.885 1.596z" class="C"/><g class="D"><path d="M81.68 50.566c-.07-.14-.78-.94-.982-1.196s-1.002-.95-1.198-1.028-1.036-.677-1.036-.677.3.18.7.323.683.32 1.196.72 1.352 1.475 1.582 1.905.457.422.457.422c-.204.25-.73.154-.73.154a.83.83 0 0 0 0-.624m-.845 1.178c-.123.004-.206-.012-.206-.012-.376-.273-.705-.87-.794-.998s.004-.18.04-.216.752 1.214.96 1.226m-2.206-.056c.08-.067.72.792 1.18.96-.06.018-.115.038-.184.05 0 0-.43-.208-.7-.5s-.368-.43-.287-.5m-.855 1.186c.18.244.548.513.548.513s.026.032-.02.107c-.36-.166-.968-.74-.897-.826s.188-.036.368.206"/></g><g transform="translate(74.25 47.711)"><mask id="H" class="E"><use xlink:href="#D"/></mask><path d="M5.24.796c.2.156.242.295-.022.67s-.352.287-.527.614-.348.74-.71.84-.475.354-.695.7-.543.273-.677.495-.5.65-.8.788S.954 4.144.66 3.52 1.8.505 2.576.246s2.08.08 2.665.55" fill="url(#E)" mask="url(#H)"/></g><path d="M62.433 37.216c.275.663 5.857-2.48 6.114-3.532.05-.202-.463-.675-.194-1.335 1.133-2.758 4.227-8.274 4.227-8.274s3.2 2.667 5.683 3.077l4.964.71 4.225.388c5.134.408 8.77-3.08 8.77-3.08l3.754 9.96c-1.214 1.748 5.748 5.09 6.99 3.526 1.58-1.986-.477-10.72-1.768-14.77-2.07-6.502-2.697-8.643-5.42-11.38s-5.827-3.808-9.4-4.697c0 0-11.868-1.277-13.415-.94s-8.138 2.8-9.32 5.754-2.673 6.722-3.148 8.466-3.045 8.37-3.893 11.03c-.727 2.285 1.485 4.27 1.828 5.1" class="I"/><g class="C"><path d="M91.226 14.727c-.366.73-1.907 3.873-5.4 3.82 0 0-.05.554-.495.792s-1.036 1.208-1.663 1.164-1.073-1.418-1.36-1.626-.277-.636-.277-.636-4.4-.944-4.164-5.736l12.688.98.67 1.24zM77.107 11.3c-.444.145-.1-.608-.317-1.558s-.008-2.253.905-2.293-.588 3.85-.588 3.85m15.178 2.22c.113.27.642.315.822-.638s1.52-2.942.188-3.332-1 3.97-1 3.97"/></g><path d="M89.605 14.475c1.342.113 1.816 1.04 2.487-.07s2.208-5.572.238-9.086S86 .657 83.47 1.07s-3.6 1.426-4.44 2.796-1.756 4.736-1.9 6.7.346 3.722.93 3.877 1.55-.895 2.342-.774 1.313 2.206 3.8 2.495c3.354.396 4.673-1.758 5.405-1.7" fill="#cc4e37"/><path d="M83.025 2.336c2.893-.107 7.583 2.127 8.882 5.405s-.285 7.15-1.348 6.96v.002c.67.246 1.05.495 1.533-.3.67-1.115 2.208-5.572.238-9.086S86 .655 83.47 1.07s-3.602 1.426-4.443 2.794c-.14.23-.28.53-.422.853.352-.66 1.503-2.275 4.42-2.382" fill="#b73e2d"/><path d="M99.915 34.7c-.463-.117-1.148 1.11-1.784 2.154-.604.994 6.255 4.4 7.02 3.936s2.11-1.428 2.055-2.132-.394-.873-.394-.873L99.915 34.7z" fill="#6e71b8"/><path d="M99.155 28.244l-2.86-6.793s-5.542 5.718-12.1 5.005-11.916-6.72-11.916-6.72-6.25 11.312-5.84 13.555l1.857-.388c-.028-.168-.032-.348.053-.554 1.133-2.756 4.227-8.272 4.227-8.272s3.2 2.665 5.683 3.075l4.964.71a153.79 153.79 0 0 0 4.225.386c5.134.408 8.773-3.08 8.773-3.08l3.627 9.63c.4.11 1.09.372 2.38.95l-3.077-7.502" fill="#4c4981"/><path d="M68.28 32.686c.457-.26 1.2 1.766 1.154 2.186s-5.74 4.017-6.128 3.76-2.263-2.394-2.083-2.857 3.06-1.7 3.938-2.035l3.118-1.053" fill="#6e71b8"/><g class="I"><path d="M98.13 36.864c-.176.3.3.784 1.047 1.33.156-.616 1.687-2.717 3.053-2.447L99.915 34.7c-.463-.115-1.148 1.1-1.784 2.154m-28.697-1.98c.046-.422-.697-2.445-1.154-2.186l-1.84.604c.206.863 1.687 2.075 2.075 2.38.544-.4.907-.693.92-.798"/></g><g class="F"><path d="M65.4 55.68l-9.04 2.42c-.178.046-.362-.06-.4-.236l-3.352-12.537c-.048-.176.057-.36.236-.408l9.043-2.418a.33.33 0 0 1 .408.236l3.354 12.535c.048.178-.057.36-.238.408"/><path d="M58.107 57.635l.228-.06-3.526-13.18-.226.06z"/></g><path d="M64.838 54.97l-9.043 2.42c-.178.046-.36-.06-.408-.236l-3.352-12.537a.33.33 0 0 1 .236-.408l9.043-2.418a.33.33 0 0 1 .408.236l3.354 12.535c.048.178-.06.36-.238.408" fill="#e1e1e1"/><path fill="#b4b4b4" d="M57.535 56.92l.228-.06-3.526-13.18-.226.06z"/><path d="M58.147 49.365l-10.75-6.314c-.15-.09-.346-.042-.438.113l-4.556 7.754a.32.32 0 0 0 .115.438l10.747 6.314c.152.09.348.04.44-.113l4.554-7.752c.09-.154.042-.35-.113-.44" class="F"/><path d="M57.687 49.09l-4.554 7.754c-.09.152-.287.204-.44.115l-10.75-6.316c-.15-.09-.202-.285-.113-.44l4.556-7.754c.09-.152.287-.202.438-.11l10.75 6.312a.32.32 0 0 1 .113.44" fill="#e5322d"/><path fill="#ff6a58" d="M54.01 55.35l.115-.196-11.302-6.64-.115.194z"/></g></g></svg>