<svg xmlns="http://www.w3.org/2000/svg" width="520" height="131" fill-rule="evenodd"><path d="M188.13 68.73c-.997-1.105-3.1-2.352-6.307-3.74s-6.374-2.082-9.5-2.082c-3.073 0-5.404.573-6.994 1.718s-2.385 2.783-2.385 4.912c0 .593.06 1.14.182 1.637a3.67 3.67 0 0 0 .687 1.395c.337.43.674.8 1 1.132s.85.647 1.536.97l1.84.83c.485.206 1.172.445 2.06.717l1.053.314 1.324.384.575.162 3.154.83 6.45 1.92a31.12 31.12 0 0 1 5.175 2.385c1.658.955 2.985 2.02 3.982 3.194s1.792 2.587 2.385 4.245.9 3.538.9 5.64c0 3.046-.586 5.72-1.76 8.025s-2.8 4.13-4.852 5.478-4.36 2.345-6.893 2.992-5.296.97-8.288.97c-4.393 0-8.753-.667-13.08-2s-8.187-3.2-11.583-5.6l5.054-9.865c1.402 1.402 4.063 2.95 7.985 4.65s7.85 2.547 11.785 2.547c3.1 0 5.45-.52 7.055-1.557s2.406-2.527 2.406-4.467c0-1.213-.276-2.244-.83-3.093s-1.604-1.637-3.154-2.365c-1.395-.655-2.63-1.168-3.7-1.54l-.354-.118c-.8-.264-2.02-.62-3.622-1.07l-2.725-.75c-.072-.018-.156-.042-.252-.072l-.153-.05a3.74 3.74 0 0 0-.445-.121c-2.938-.836-5.4-1.7-7.358-2.567s-3.68-1.934-5.135-3.174-2.513-2.7-3.174-4.346-1-3.605-1-5.842c0-3.88.97-7.237 2.9-10.067a17.56 17.56 0 0 1 7.702-6.307c3.194-1.375 6.812-2.062 10.855-2.062 7.277 0 14.123 2.17 20.538 6.5l-5.054 9.3zm13.256-6.064V51.668h11.078v10.997h-11.078zm0 49.446V68.73h11.078v43.38h-11.078zm17.137-21.7c0-4.15.85-7.93 2.547-11.34s4.097-6.112 7.196-8.106 6.6-2.992 10.47-2.992c3.26 0 6.172.74 8.733 2.224s4.703 3.53 6.428 6.145v-7.6h9.703v41.32c0 4.178-1.044 7.837-3.133 10.977s-4.946 5.52-8.57 7.136-7.756 2.426-12.392 2.426c-4.555 0-8.47-.768-11.745-2.304s-6.125-3.787-8.55-6.752l6.024-5.862c1.67 2.02 3.767 3.618 6.287 4.8s5.182 1.76 7.985 1.76c1.78 0 3.437-.243 4.973-.728s2.9-1.206 4.124-2.163 2.163-2.23 2.85-3.82 1.03-3.4 1.03-5.458V104.6c-1.43 2.453-3.437 4.36-6.024 5.72s-5.377 2.042-8.37 2.042c-3.773 0-7.163-.997-10.168-2.992s-5.323-4.663-6.954-8.005-2.446-6.994-2.446-10.956zm33.96 5.822V85.87c-.97-2.507-2.513-4.542-4.63-6.105s-4.346-2.345-6.7-2.345c-3.288 0-6 1.327-8.106 3.982s-3.174 5.775-3.174 9.36 1.145 6.604 3.437 9.056 5.12 3.68 8.5 3.68c2.345 0 4.508-.7 6.5-2.102s3.376-3.127 4.184-5.175zm60.033 15.9H301.44v-24.34c0-6.684-2.3-10.027-6.873-10.027-2.3 0-4.542.862-6.752 2.588s-3.72 3.868-4.528 6.428v25.35H272.21V68.73h10.027v8.046c1.617-2.75 3.955-4.905 7.015-6.47s6.462-2.345 10.208-2.345c2.102 0 3.942.33 5.52 1s2.837 1.516 3.78 2.567 1.705 2.345 2.284 3.88.97 3.066 1.172 4.6.303 3.2.303 5.033v27.08zm5.3-12.816c0-4.205 1.725-7.608 5.175-10.208s7.938-3.9 13.463-3.9c4.15 0 7.628.58 10.43 1.738v-2.304c0-2.776-.815-4.905-2.446-6.388s-4.05-2.224-7.257-2.224c-2.318 0-4.528.398-6.63 1.193s-4.407 2.028-6.913 3.7l-3.598-7.277c5.795-3.773 11.9-5.66 18.315-5.66 6.2 0 11.017 1.55 14.454 4.65s5.155 7.52 5.155 13.26v13.827c0 1.186.202 2.028.606 2.527s1.092.788 2.062.87v9.016c-1.86.377-3.437.566-4.73.566-2.13 0-3.78-.465-4.953-1.395s-1.893-2.176-2.163-3.74l-.243-2.224c-1.86 2.4-4.198 4.265-7.015 5.6s-5.694 2-8.632 2c-4.34 0-7.938-1.294-10.795-3.88s-4.286-5.835-4.286-9.744zm27.007 2.224c1.375-1.375 2.062-2.64 2.062-3.8V93.3c-2.83-1.16-5.728-1.738-8.692-1.738-2.9 0-5.283.627-7.116 1.88s-2.75 2.9-2.75 4.912c0 1.752.7 3.268 2.102 4.548s3.275 1.92 5.62 1.92c1.644 0 3.255-.303 4.83-.9s2.9-1.408 3.942-2.406zm47.702 8.37c-4.42 1.968-8.504 2.95-12.25 2.95-1.6 0-3.046-.202-4.366-.606a10.88 10.88 0 0 1-3.558-1.84c-1.05-.823-1.873-1.934-2.466-3.335s-.9-3.032-.9-4.892V77.26h-5.7v-8.53h5.7V54.66h11.118v14.07h9.097v8.53h-9.097v21.185c.08 2.83 1.455 4.245 4.124 4.245 1.563 0 3.585-.526 6.064-1.577l2.224 8.773zm3.997-14V68.73H407.6v24.743c0 6.684 2.4 10.027 7.196 10.027 2.237 0 4.353-.674 6.347-2.02s3.612-3.302 4.852-5.862V68.73h11.078V99.7c0 1.186.202 2.028.606 2.527s1.092.788 2.062.87v9.016c-1.78.323-3.383.485-4.8.485-1.995 0-3.618-.45-4.872-1.354s-1.974-2.163-2.163-3.78l-.243-3.477c-1.914 2.938-4.38 5.162-7.4 6.67s-6.374 2.264-10.067 2.264c-4.474 0-7.87-1.442-10.188-4.326s-3.477-7.116-3.477-12.695zm76.002-17.587c-3.45.054-6.5.728-9.117 2.02s-4.508 3.14-5.64 5.54v26.24H446.68V68.73h10.188v9.258c1.536-2.938 3.497-5.283 5.883-7.035s4.9-2.682 7.54-2.8l.95.008c.624.01 1.05.036 1.272.073V78.3zM496.97 67.96c3.45 0 6.6.606 9.48 1.82s5.256 2.85 7.156 4.912 3.37 4.427 4.407 7.095 1.557 5.485 1.557 8.45c0 1.536-.08 2.776-.243 3.72H485.77c.27 3.288 1.5 5.923 3.72 7.904s4.8 2.972 7.803 2.972a12.69 12.69 0 0 0 6.287-1.637c1.954-1.09 3.282-2.513 3.982-4.265l9.5 2.668c-1.617 3.396-4.2 6.132-7.783 8.207s-7.702 3.113-12.392 3.113c-4.528 0-8.558-1.024-12.088-3.073s-6.213-4.75-8.046-8.106-2.75-7.04-2.75-11.058c0-4.124.916-7.904 2.75-11.34s4.515-6.192 8.046-8.268 7.587-3.113 12.17-3.113zm-.162 8.046c-2.992 0-5.552 1-7.682 3.032s-3.33 4.65-3.598 7.884h22.68c-.323-3.26-1.543-5.896-3.66-7.904s-4.697-3.012-7.742-3.012z" fill="#161616" fill-rule="nonzero"/><path d="M200.3 1.17c-2.493 1.218-4.364 3.27-5.73 5.597C192.375 3.03 188.883 0 183.596 0s-11.775 4.544-11.775 12.22c0 7.77 6.407 11.454 9.58 13.534 3.392 2.22 9.18 6.26 13.17 13.734 3.992-7.474 9.778-11.513 13.17-13.734 2.384-1.564 6.595-4.034 8.54-8.464L200.3 1.17z" fill="#e5322d"/><path fill="#fff" d="M200.11 17.73V3.127l14.427 14.603z"/><path d="M151.4 31.037h1.8c.567 0 1.222-.795 1.222-1.325V10.505c0-.53-.654-1.28-1.222-1.28h-1.8V4.588h14.352v4.636H163.9c-.567 0-1.178.75-1.178 1.28v19.208c0 .53.6 1.325 1.178 1.325h1.832v4.46H151.4v-4.46zM234.098 19.6c3.664 0 4.624-2.12 4.624-5.078 0-2.914-.96-5-4.624-5h-2.53V19.6h2.53zm-13.436 11.436h1.483c.6 0 1.265-.795 1.265-1.325V10.505c0-.53-.654-1.28-1.265-1.28h-1.483V4.588h13.872c8.158 0 12.607 2.914 12.607 9.802 0 6.712-4.7 9.758-12.912 9.758h-2.53v6.888h3.534v4.46h-14.57v-4.46zm42.228-.22c5.497 0 8.2-3.312 8.2-10.73 0-7.374-2.66-10.553-8.2-10.553h-2.05v21.283h2.05zm-13.087.22h1.483c.6 0 1.265-.795 1.265-1.325V10.505c0-.53-.654-1.28-1.265-1.28h-1.483V4.588h13.305c10.862 0 16.533 4.77 16.533 15.278 0 10.332-5.758 15.63-16.75 15.63h-13.087v-4.46zm32.63.001h1.483c.6 0 1.265-.795 1.265-1.325V10.505c0-.53-.654-1.28-1.265-1.28h-1.483V4.588h24.82v9.538h-4.885l-.742-4.548h-8.158v8.654h3.97l.35-2.914h4.493v10.73h-4.493l-.35-3.047h-3.97v8.036H297v4.46h-14.57v-4.46z" fill="#161616"/><path d="M34.682 1.72H110a5 5 0 0 1 5 5v74.576a5 5 0 0 1-1.48 3.551L83.838 114.27a5 5 0 0 1-3.52 1.449H5a5 5 0 0 1-5-5V36.145a5 5 0 0 1 1.48-3.551L31.162 3.17a5 5 0 0 1 3.52-1.449z" fill="#0062c5"/><path d="M39.67 55.427l-.9 31.673a.48.48 0 0 0 .895.253L49.8 69.825c-1.907-1.797-2.42-4.718-1.055-7.08 1.594-2.76 5.13-3.705 7.898-2.107a5.78 5.78 0 0 1 2.124 7.893c-1.365 2.364-4.15 3.38-6.66 2.627L42.012 88.642a.48.48 0 0 0 .666.648l26.96-16.56a2.88 2.88 0 0 0 1.357-2.163L72.96 51.07c.114-1.126-.444-2.214-1.424-2.78L59.86 41.55c-.98-.567-2.204-.504-3.123.16L40.862 53.175a2.87 2.87 0 0 0-1.19 2.25zm35.76-7.377L58.198 38.1c-.917-.53-1.124-1.888-.462-3.035l4.008-6.942c.662-1.147 1.942-1.647 2.86-1.117l17.232 9.95c.917.53 1.124 1.888.462 3.035L78.3 46.93c-.662 1.147-1.942 1.647-2.86 1.117z" fill-rule="nonzero" fill="#fff"/></svg>