<svg xmlns="http://www.w3.org/2000/svg" xmlns:xlink="http://www.w3.org/1999/xlink" width="178" height="148"><style><![CDATA[.B{fill:#fff}.C{fill:#102833}.D{fill:#bfbfbf}.E{fill:#254554}.F{fill:#dbdbdb}]]></style><defs><path id="A" d="M0 28.426L67.468.54l39.436 95.417-67.467 27.887z"/><filter x="-10.8%" y="-7.7%" width="121.5%" height="118.7%" id="B"><feOffset dy="2" in="SourceAlpha"/><feGaussianBlur stdDeviation="3.5"/><feColorMatrix values="0 0 0 0 0 0 0 0 0 0 0 0 0 0 0 0 0 0 0.2 0"/></filter><path d="M19.704.413c-10.84 0-19.63 8.8-19.63 19.63h0v61.64c0 10.837 8.788 19.626 19.63 19.626H81.34c10.84 0 19.63-8.8 19.63-19.626h0v-61.64c0-10.84-8.8-19.63-19.63-19.63h0" id="C"/><path d="M19.704.413c-10.84 0-19.63 8.8-19.63 19.63h0v61.64c0 10.837 8.788 19.626 19.63 19.626H81.34c10.84 0 19.63-8.8 19.63-19.626h0v-61.64c0-10.84-8.8-19.63-19.63-19.63h0-61.638z" id="D"/><path id="E" d="M17.15 51.364l54.365-22.47.473 1.147-54.365 22.468z"/></defs><g transform="translate(6 3)" fill="none" fill-rule="evenodd"><g transform="translate(0 .526)"><path d="M53.264 43.192h61.638c10.84 0 19.63 8.788 19.63 19.63v61.64c0 10.84-8.8 19.626-19.63 19.626H53.264c-10.84 0-19.63-8.788-19.63-19.626V62.82c0-10.84 8.788-19.63 19.63-19.63" fill="#5f83c6"/><use fill="#000" filter="url(#B)" xlink:href="#A"/><use fill="#f6f6f8" xlink:href="#A"/><g fill="#c2c2cc"><path d="M10.294 34.773l54.365-22.47 1.776 4.296L12.07 39.067zM13.74 43.1l54.365-22.47.473 1.145-54.365 22.47zm.85 2.073l54.365-22.47.475 1.147-54.365 22.468zm.855 2.063L69.8 24.768l.473 1.145-54.365 22.47zm.853 2.064L70.66 26.83l.475 1.145-54.365 22.47z"/><use xlink:href="#E"/><path d="M18.004 53.426l34.613-14.304.475 1.145-34.615 14.306zm1.696 4.128l54.365-22.468.473 1.145L20.182 58.7zm.862 2.066l54.365-22.47.473 1.145-54.363 22.47z"/><use xlink:href="#E" x="4.266" y="10.318"/><path d="M22.268 63.745l54.365-22.468.473 1.145L22.742 64.9zm.852 2.055l54.365-22.47.473 1.145-54.365 22.47zm.854 2.072l54.365-22.47.473 1.147L24.45 69.017zm.853 2.063l54.365-22.468.473 1.145L25.3 71.082zM25.68 72l54.365-22.47.473 1.145-54.363 22.47z"/><use xlink:href="#E" x="9.383" y="22.699"/><path d="M27.385 76.126L52.538 65.73l.475 1.15L27.86 77.273zm1.705 4.128l54.365-22.468.475 1.145L29.565 81.4zm.855 2.064L84.3 59.848l.473 1.145-54.365 22.47zm.852 2.062L85.162 61.9l.475 1.145L31.27 85.528zm.853 2.064l54.365-22.468.473 1.145-54.365 22.47zm.853 2.066l37.615-15.55.475 1.147-37.615 15.546zm28.482-6.888l.473 1.145-26.774 11.016-.475-1.15"/></g><path d="M66.774 99.58c-.293-.047-.483-.483-.605-.72-.255-.487-.452-1.006-.64-1.524l-1.597-5.025.41.864 2.797 6.33a.53.53 0 0 1-.365.075m7.307-7.223c-.583 1.15-1.7 1.854-2.98 1.915-.08.004-.173.086-.175.167-.01.356.108 3.367-.387 3.32-.23-.018-.656-.906-.758-1.07l-2.086-3.548c-.098-.165-.397-.05-.356.14.244 1.114.51 2.237.57 3.38.035.61.02 1.247-.134 1.84a2.29 2.29 0 0 1-.328.705c-1.265-3.14-2.785-6.174-4.233-9.236l-.4-1.2a19.08 19.08 0 0 0-.66-1.676c-.14-.3-.3-.723-.556-.95-.403-.36-.48.1-.36.44.304.827.735 1.623 1.116 2.418l.41.858.277.886 1.375 4.5c.383 1.224.754 2.48 1.322 3.632.334.676.784 1.35 1.536.96.556 1.424 1.06 2.864 1.47 4.333.07.244.44.102.37-.143a46.31 46.31 0 0 0-1.507-4.422c.672-.613.715-1.73.707-2.573-.006-.87-.147-1.727-.32-2.58.625 1.124 1.24 2.27 2.01 3.286.242.318.576.61.943.234.277-.285.293-.752.306-1.12l.057-2.212c1.353-.12 2.514-.92 3.133-2.137.114-.228-.25-.383-.365-.157" fill="#000"/></g><g transform="translate(33.562 43.303)"><mask id="F" class="B"><use xlink:href="#C"/></mask><path d="M46.144 49.386c-1.214-.927-.424-2.74.576-3.654 1.385-1.27 2.675-2.544 3.766-4.467s4.748-7.655 8.003-8.162 5.922 1.886 7.105 2.97 4.174 3.03 9.11 3.493c4.015.377 7.783.872 9.397 7.553s3.257 9.916 4.91 13.597c1.7 3.785 4.127 11.155 4.936 13.124.864-.67 1.58-1.163 2.094-1.424 0 0 .96.47 1.707 1.088.595-.202.866.448 1.26.858 1.073 1.12 4.235 5.176 8.356 9.824l-.255 2.167.263 13.513-26.992-1.07c-.96-1.124-2.77-1.483-3.766-2.616.045-.067-1.232-.917-1.147-1.02-.595-.49-1.086-1.212-1.086-1.212.862-1.22.784-1.312 2.13-2.88-2.057-2.094-4.12-3.952-6.565-5.215-3.608-1.866-12.95-6.92-17.337-10.666S41.59 65.576 40.13 64.08s-1.047-3.03-.163-4.45S41 57.314 42.83 56.66s1.95-1.122 2.226-1.972 1.118-1.304 1.84-1.08l.02.006s1.145.026 1.87 1.53-.61 5.178 2.738 5.57c1.605.187 4.506-.08 5.854-1.17s5.072-5.33 4.44-11.295c-.475-4.453-1.033-7.647-2.927-7.93-1.403-.212-5.445 5.924-6.43 7.323s-3.748 3.13-6.317 1.742" fill="#cca38e" mask="url(#F)"/><mask id="G" class="B"><use xlink:href="#D" href="#C"/></mask><path d="M44.655 52.478c.493.163 33.044 9.1 33.044 9.1 2.9.507 4.494-5.43.81-6.156L45.612 48.95c-1.964-.387-3.072 2.83-.957 3.528" fill="#183542" mask="url(#G)"/><mask id="H" class="B"><use xlink:href="#E" href="#C"/></mask><path d="M79.46 61.03c1.33-1.2 1.746-3.905.212-5.1l-34.674-6.99c-1.298.25-1.978 2.114-1.07 3.084l35.53 9.004" mask="url(#H)" class="E"/><mask id="I" class="B"><use xlink:href="#F" href="#C"/></mask><path d="M80.55 59.07c.202-.886.12-1.837-.346-2.556L44.52 49.12c-.46.26-.796.74-.935 1.26L80.55 59.07" fill="#395d6e" mask="url(#I)"/><mask id="J" class="B"><use xlink:href="#G" href="#C"/></mask><path d="M52.88 54.932c.043-.02.065-.067.084-.155-1.532-1.473-.737-3.677.88-4.215.016-.098-.002-.155-.07-.194-.766.18-1.524.913-1.774 1.915-.28 1.116.16 2.206.882 2.648" fill="#999797" mask="url(#J)"/><mask id="K" class="B"><use xlink:href="#H" href="#C"/></mask><path d="M53.174 50.912l-.306-.06c-.4.346-.723.843-.872 1.434l-.018.086.22.05c.13-.6.48-1.143.976-1.51" mask="url(#K)" class="D"/><mask id="L" class="B"><use xlink:href="#I" href="#C"/></mask><path d="M98.257 73.303c-.075-1.098-2.593-2.306-2.593-2.306-3.732 1.923-17.93 16.178-22.71 23.073 0 0 1.377 2.35 5.378 2.243s22.39-15.93 19.926-23" fill="#dbf4ff" mask="url(#L)"/><mask id="M" class="B"><use xlink:href="#D"/></mask><path d="M109.077 82.028c-4.16-4.616-9.146-8.576-10.228-9.686-1.3-1.33-3.485.947-7.7 4.714S74.607 93.74 73.61 95.24a318.28 318.28 0 0 1 7.641 8.902l24.982 2.85 2.846-24.963z" mask="url(#M)" class="C"/><mask id="N" class="B"><use xlink:href="#K" href="#D"/></mask><path d="M108.946 83.174c-3.36-3.567-9.097-8.733-10.106-9.767-1.23-1.26-3.302.898-7.294 4.465S75.893 93.646 74.924 95.105c1.58.913 4.83 4.512 8.753 9.315l22.554 2.57 2.715-23.817z" fill="#183542" mask="url(#N)"/><mask id="O" class="B"><use xlink:href="#L" href="#C"/></mask><path d="M83.888 88.15c5.818 4.968 11.998 11.627 15.54 15.528-4.092-3.113-10.315-9.7-15.54-15.528" mask="url(#O)" class="C"/><mask id="P" class="B"><use xlink:href="#M" href="#D"/></mask><path d="M93.965 90.554c-.3-.037-.61-.014-.917.07-1.302.354-2.072 1.697-1.717 2.998.27.994 1.116 1.676 2.082 1.786l.063-.57a1.87 1.87 0 0 1-.277-3.658 1.79 1.79 0 0 1 .701-.055l.065-.57zm2.08 1.784a2.44 2.44 0 0 0-2.08-1.784l-.065.57c.737.084 1.383.605 1.59 1.365a1.87 1.87 0 0 1-1.312 2.294c-.236.063-.473.08-.703.055l-.063.57a2.47 2.47 0 0 0 .917-.069c1.302-.354 2.07-1.697 1.715-3h0z" mask="url(#P)" class="C"/><mask id="Q" class="B"><use xlink:href="#N" href="#C"/></mask><path d="M94.86 92.663a.47.47 0 0 0-.574-.33.47.47 0 0 0-.33.574.47.47 0 0 0 .574.33.47.47 0 0 0 .33-.574" mask="url(#Q)" class="C"/><mask id="R" class="B"><use xlink:href="#O" href="#C"/></mask><path d="M93.423 93.053a.47.47 0 0 0-.574-.328c-.25.067-.397.324-.33.574a.47.47 0 0 0 .574.328c.25-.067.397-.324.33-.574" mask="url(#R)" class="C"/><mask id="S" class="B"><use xlink:href="#P" href="#D"/></mask><path d="M98.114 94.678c-.737-.084-1.503.17-2.05.752a2.44 2.44 0 0 0 .098 3.451c.4.38.892.595 1.4.652l.063-.568c-.387-.047-.764-.212-1.07-.5-.75-.707-.784-1.888-.075-2.64.42-.444 1.004-.638 1.568-.574l.065-.57zm1.5 4.105a2.44 2.44 0 0 0-.1-3.453 2.43 2.43 0 0 0-1.399-.652l-.065.57c.39.045.766.212 1.07.5.75.71.784 1.9.075 2.64-.42.446-1.004.64-1.57.576l-.063.568a2.43 2.43 0 0 0 2.051-.75h0z" mask="url(#S)" class="C"/><mask id="T" class="B"><use xlink:href="#Q" href="#C"/></mask><path d="M98.72 97.938a.47.47 0 0 0-.018-.662.47.47 0 0 0-.662.018.47.47 0 0 0 .018.662c.19.18.485.17.662-.018" mask="url(#T)" class="C"/><mask id="U" class="B"><use xlink:href="#R" href="#C"/></mask><path d="M97.638 96.916c.177-.187.17-.483-.018-.66s-.487-.17-.662.018a.47.47 0 0 0 .018.662c.187.177.485.17.662-.02" mask="url(#U)" class="C"/><mask id="V" class="B"><use xlink:href="#S" href="#D"/></mask><path d="M89.696 85.776c-.587-.065-1.198.077-1.71.452a2.44 2.44 0 0 0-.542 3.41c.42.58 1.043.917 1.7.992l.063-.57a1.87 1.87 0 0 1-.884-3.369 1.88 1.88 0 0 1 1.308-.344l.065-.57zm1.157 4.404a2.44 2.44 0 0 0 .542-3.412c-.418-.576-1.043-.917-1.7-.992l-.065.57a1.87 1.87 0 0 1 .886 3.369c-.393.285-.862.395-1.3.344l-.063.57a2.42 2.42 0 0 0 1.709-.45h0z" mask="url(#V)" class="C"/><mask id="W" class="B"><use xlink:href="#T" href="#C"/></mask><path d="M90.132 89.183c.2-.15.255-.444.104-.652s-.444-.257-.654-.106-.257.446-.104.654.444.257.654.104" mask="url(#W)" class="C"/><mask id="X" class="B"><use xlink:href="#U" href="#C"/></mask><path d="M89.258 87.98a.47.47 0 0 0 .104-.654.47.47 0 0 0-.654-.104c-.2.15-.257.446-.104.654s.444.257.654.104" mask="url(#X)" class="C"/><mask id="Y" class="B"><use xlink:href="#V" href="#C"/></mask><path d="M40.84 50.003l1.646.878c.953.51 1.475-1.58.466-1.603l-1.964-.053c-.434-.01-.597.54-.15.778" fill="#0d1d24" mask="url(#Y)"/><mask id="Z" class="B"><use xlink:href="#W" href="#C"/></mask><path d="M42.57 51.093l1.905 1.053c2.393 1.322 3.555-2.92.998-2.97l-2.524-.05c-1.1-.02-1.507 1.344-.38 1.968" mask="url(#Z)" class="E"/><mask id="a" class="B"><use xlink:href="#X" href="#D"/></mask><path d="M75.622 60.85c.07-.128-.322-.434-.458-.13l-.466 1.037s-2.844-.185-4.858-1.045-4.985-2.662-5.657-2.848-1.978.153-1.915.59.625.595 1.3.5 1.752.116 2.687.748 1.974 1.02 3.4 1.615 5.37 1.994 6.215 2.043 1.06-.38 1.6-1.848l-.338-.092c-.224.562-.713 1.42-.713 1.42s-.442.01-.762-.228-.574-.784-.574-.784l.542-.978z" mask="url(#a)" class="D"/><mask id="b" class="B"><use xlink:href="#Y" href="#C"/></mask><path d="M44.555 52.657l7.99 2.226c.29.08.375.1.418-.106-1.532-1.473-.735-3.677.88-4.213.033-.19-.06-.224-.385-.283L45.3 48.788c-2.13-.39-3.184 3.188-.744 3.868" mask="url(#b)" class="D"/><mask id="c" class="B"><use xlink:href="#Z" href="#D"/></mask><path d="M75.733 61.038l1.966.54c2.9.507 4.494-5.43.81-6.156l-1.534-.3c-1.08-.05-2.176.976-2.546 2.457-.395 1.573.175 3.08 1.28 3.443l.024.016z" mask="url(#c)" class="D"/><mask id="d" class="B"><use xlink:href="#a" href="#C"/></mask><path d="M80.55 59.07l.016-.073.014-.07.012-.07.012-.07a1 1 0 0 1 .01-.071l.008-.07.01-.08.004-.065.006-.073.004-.065.004-.08v-.206c0-.026-.002-.053-.004-.077l-.002-.06-.006-.1-.004-.053-.01-.084c-.004-.02-.006-.04-.008-.055l-.014-.086-.008-.05-.018-.088c-.002-.016-.006-.03-.01-.047l-.022-.094-.01-.04-.03-.092-.012-.04-.03-.088-.016-.04-.037-.1-.014-.035-.04-.088-.018-.037-.063-.118-.053-.086-.016-.026-4.532-.94c-.562.432-1.025 1.14-1.24 2.004l-.01.037 6.13 1.454" mask="url(#d)" class="F"/><mask id="e" class="B"><use xlink:href="#b" href="#C"/></mask><path d="M78.91 55.722c1.163.293 1.85 1.754 1.446 3.36s-1.632 2.577-2.797 2.286-1.817-1.73-1.414-3.34 1.6-2.6 2.764-2.308" mask="url(#e)" class="F"/><mask id="f" class="B"><use xlink:href="#c" href="#C"/></mask><path d="M78.9 55.96c1.037.26 1.587 1.634 1.228 3.07s-1.493 2.387-2.53 2.127-1.587-1.634-1.228-3.07 1.493-2.387 2.53-2.127" mask="url(#f)" class="E"/><mask id="g" class="B"><use xlink:href="#d" href="#C"/></mask><path d="M78.07 61.193c-.157.012-.316.002-.47-.04-1.037-.26-1.587-1.632-1.226-3.068a3.58 3.58 0 0 1 .391-.961c.16-.012.316 0 .473.037 1.037.26 1.587 1.636 1.226 3.07a3.65 3.65 0 0 1-.393.961" fill="#395d6e" mask="url(#g)"/><mask id="h" class="B"><use xlink:href="#e" href="#C"/></mask><path d="M53.174 50.912l-9.11-1.86c-.462.26-.668.758-.81 1.28l8.942 2.1a2.56 2.56 0 0 1 .976-1.509" mask="url(#h)" class="F"/></g></g></svg>